# xmcd
#
# Track frame offsets:
#	150
#	14887
#	26267
#	36067
#	46087
#	59512
#	69767
#	81415
#	93030
#	105402
#
# Disc length: 1585 seconds
# Revision: 0
# Processed by: cddbd v1.5.2PL0 Copyright (c) Steve Scherf et al.
# Submitted via: dBpowerAMP V12.0
#
DISCID=71062f0a
DTITLE=Various Artist - Golden Oldies - Vol. 12
DYEAR=1900
DGENRE=R&B Vocal
TTITLE0=The Delfonics - La La Means I Love You
TTITLE1=The Jive Five - My True Story
TTITLE2=Don and Juan - What's Your Name
TTITLE3=The Blue Jays - Lovers Island
TTITLE4=James and Bobby Purify - I'm Your Puppet
TTITLE5=The Paradons - Diamonds and Pearls
TTITLE6=The Skyliners - Since I Don't Have You
TTITLE7=The Duprees - You Belong to Me
TTITLE8=Shep and The Limelights - Daddy's Home
TTITLE9=The Channels - The Closer You Are
EXTD=
EXTT0=
EXTT1=
EXTT2=
EXTT3=
EXTT4=
EXTT5=
EXTT6=
EXTT7=
EXTT8=
EXTT9=
PLAYORDER=
